<?xml version="1.0" standalone="no"?>
<!DOCTYPE svg PUBLIC "-//W3C//DTD SVG 20010904//EN"
 "http://www.w3.org/TR/2001/REC-SVG-20010904/DTD/svg10.dtd">
<svg version="1.0" xmlns="http://www.w3.org/2000/svg"
 width="2000.000000pt" height="2000.000000pt" viewBox="0 0 2000.000000 2000.000000"
 preserveAspectRatio="xMidYMid meet">

<g transform="translate(0.000000,2000.000000) scale(0.100000,-0.100000)"
fill="#000000" stroke="none">
<path d="M13419 18892 c-13 -11 -40 -21 -59 -25 -36 -5 -370 -165 -540 -257
-137 -75 -407 -226 -700 -392 -140 -80 -282 -160 -315 -178 -208 -115 -621
-358 -1125 -660 -727 -436 -1042 -621 -1565 -920 -137 -78 -279 -159 -315
-180 -62 -36 -259 -148 -475 -268 -55 -31 -145 -81 -200 -113 -55 -31 -122
-69 -150 -84 -27 -16 -97 -55 -155 -88 -58 -33 -125 -71 -150 -85 -25 -13 -49
-28 -55 -32 -5 -4 -35 -21 -65 -37 -52 -28 -161 -89 -427 -240 -200 -112 -338
-189 -353 -197 -8 -4 -24 -12 -35 -19 -11 -7 -76 -43 -145 -81 -69 -38 -141
-78 -160 -89 -54 -31 -95 -54 -390 -217 -597 -332 -788 -438 -860 -477 -134
-73 -522 -284 -629 -342 -81 -44 -107 -63 -119 -89 -15 -30 -15 -35 7 -80 13
-26 103 -180 201 -342 97 -162 244 -407 325 -545 82 -137 183 -304 225 -370
98 -153 181 -299 202 -351 21 -52 42 -233 34 -291 -8 -60 -6 -1476 2 -1683 l7
-165 -396 0 c-281 0 -400 -3 -410 -11 -8 -7 -48 -15 -89 -19 -41 -4 -79 -11
-85 -15 -5 -4 -37 -13 -70 -18 -77 -14 -196 -42 -215 -52 -9 -4 -31 -11 -50
-15 -19 -4 -39 -10 -45 -14 -5 -4 -62 -27 -125 -51 -123 -47 -360 -162 -423
-204 -21 -14 -40 -26 -43 -26 -10 0 -161 -104 -272 -188 -140 -105 -417 -377
-530 -519 -325 -412 -536 -889 -621 -1403 -140 -849 85 -1714 621 -2392 122
-156 380 -406 539 -526 427 -319 860 -500 1399 -583 123 -19 185 -23 415 -23
299 0 433 15 690 75 83 20 164 32 226 34 67 3 114 10 155 25 32 12 88 29 124
38 256 61 474 117 576 148 65 20 130 38 144 40 67 7 139 27 237 65 60 23 137
52 173 65 75 26 406 117 710 194 113 29 260 67 327 85 68 19 176 43 240 55 65
11 159 30 208 40 304 66 560 102 885 125 118 8 263 20 321 26 120 12 280 1
461 -32 137 -24 239 -57 397 -126 210 -92 278 -118 476 -186 320 -109 555
-168 880 -222 88 -14 239 -41 335 -60 188 -37 646 -98 1060 -141 209 -22 304
-27 530 -27 285 -1 356 6 565 51 50 11 122 23 160 27 147 15 379 88 567 179
147 71 394 236 502 335 40 36 126 113 190 170 140 123 266 270 311 364 36 74
61 191 50 235 -3 15 -16 37 -28 50 -28 30 -87 58 -95 46 -4 -6 -23 -19 -43
-31 -47 -27 -664 -543 -795 -665 -138 -128 -337 -252 -527 -327 -62 -25 -110
-34 -283 -53 -180 -19 -256 -22 -549 -21 -187 0 -387 6 -445 11 -216 22 -564
73 -682 101 -68 16 -186 39 -263 51 -591 91 -715 116 -1371 274 -391 94 -514
128 -689 191 -206 74 -297 98 -480 130 -181 31 -230 35 -488 36 -226 0 -277
-3 -362 -20 -55 -11 -137 -25 -183 -31 -46 -6 -127 -24 -181 -40 -53 -16 -115
-33 -137 -38 -21 -6 -102 -26 -179 -47 -77 -20 -158 -40 -180 -45 -52 -11
-216 -53 -330 -85 -49 -14 -157 -41 -240 -61 -230 -55 -643 -176 -815 -239
-85 -32 -173 -63 -194 -71 -35 -13 -22 3 108 127 264 255 446 496 603 800 67
129 111 226 143 315 l21 61 44 -23 c84 -42 262 -45 3435 -48 2460 -3 3605 2
3775 18 33 3 195 8 360 11 165 4 317 11 337 16 32 8 38 14 45 47 4 20 8 1315
8 2877 -1 2405 -3 2857 -15 2950 -8 61 -14 151 -15 200 0 81 -3 94 -25 123
l-25 33 -4860 -5 c-2673 -3 -4905 -8 -4960 -10 l-100 -5 80 28 c98 34 179 75
310 154 99 60 120 73 285 179 124 80 565 344 710 425 158 88 462 248 835 438
160 81 322 164 360 185 39 21 124 66 190 100 196 102 379 199 625 330 85 45
193 103 240 128 47 24 90 48 95 52 6 4 82 44 170 90 88 46 221 115 295 155 74
40 207 109 295 155 325 168 736 379 985 508 74 38 191 99 260 137 69 37 152
82 185 99 248 134 874 496 925 535 19 15 80 52 135 81 104 56 432 256 740 450
99 63 297 187 440 276 143 90 277 178 298 197 20 20 70 52 110 71 110 56 109
54 97 117 -18 92 -85 250 -227 534 -112 225 -158 309 -396 724 -267 468 -362
610 -421 626 -11 4 -28 9 -37 11 -9 2 -27 -4 -40 -14z m-759 -698 c122 -37
186 -52 524 -120 406 -82 395 -79 409 -93 6 -6 23 -11 37 -11 14 0 34 -6 45
-14 11 -7 32 -16 46 -19 21 -6 29 -16 38 -53 31 -121 100 -254 345 -659 l157
-260 -29 -13 c-27 -13 -46 -9 -273 61 -748 232 -1062 317 -1604 437 -312 69
-805 191 -805 199 0 3 24 20 53 37 28 17 225 136 437 264 212 128 403 244 425
256 46 27 75 25 195 -12z m-2667 -1675 c395 -79 770 -171 1372 -334 292 -80
739 -199 958 -255 l87 -23 -112 -64 c-62 -36 -140 -79 -173 -97 -33 -18 -85
-46 -115 -63 -146 -81 -532 -289 -670 -361 l-155 -81 -105 30 c-328 92 -1031
271 -1360 345 -91 20 -289 66 -440 101 -151 36 -378 89 -504 119 -126 29 -230
55 -232 56 -1 2 97 58 219 125 347 190 699 384 847 467 74 42 145 76 158 76
12 0 113 -18 225 -41z m-3448 -1811 c103 -9 317 -37 430 -58 28 -5 102 -17
165 -26 175 -24 398 -61 570 -94 85 -16 263 -46 395 -65 326 -48 548 -84 620
-100 133 -31 160 -38 170 -45 6 -5 33 -11 60 -15 28 -4 55 -11 60 -15 6 -5 28
-11 50 -15 22 -4 45 -11 50 -15 6 -5 28 -11 50 -15 81 -15 74 -23 -92 -112
-87 -47 -241 -131 -343 -188 -102 -56 -216 -119 -255 -140 -38 -21 -174 -95
-301 -165 l-231 -127 -90 17 c-50 9 -110 24 -134 33 -52 19 -584 108 -819 136
-182 23 -427 45 -990 91 -206 17 -483 42 -615 55 -132 13 -307 29 -388 36
l-148 13 538 267 c523 260 1007 507 1075 549 18 11 40 17 48 13 8 -3 65 -10
125 -15z m8945 -2853 c-36 -49 -102 -139 -145 -200 -116 -160 -283 -366 -525
-650 -239 -279 -397 -471 -514 -622 l-78 -103 -539 0 -539 0 83 103 c46 56
139 174 207 262 68 88 161 205 205 260 44 55 93 118 108 141 15 22 41 53 57
69 17 16 30 34 30 41 0 7 3 14 8 16 4 2 21 21 37 42 86 113 139 182 220 286
137 176 236 312 277 379 l38 61 342 2 c189 2 445 3 569 3 l225 0 -66 -90z
m-6536 -132 c-122 -120 -326 -333 -454 -473 -128 -140 -295 -320 -370 -400
-75 -80 -161 -172 -191 -205 -30 -33 -57 -62 -60 -65 -3 -3 -63 -71 -133 -152
l-127 -148 -465 0 c-349 0 -469 -3 -484 -12 -15 -10 -22 -10 -32 0 -13 13
-198 17 -198 4 0 -4 -27 -8 -60 -8 -33 -1 -60 3 -60 9 0 5 -7 4 -15 -3 -8 -6
-22 -10 -31 -8 -14 2 -3 20 47 78 36 41 164 192 284 335 192 228 542 634 645
749 29 33 110 121 284 311 15 17 57 65 93 107 l67 77 70 5 c39 4 89 7 111 9
22 1 323 3 670 5 l630 3 -221 -218z m3559 130 c-44 -49 -138 -157 -209 -241
-71 -84 -162 -192 -202 -240 -41 -48 -174 -202 -296 -342 -224 -257 -439 -511
-509 -601 -21 -27 -42 -49 -47 -49 -6 0 -10 -7 -10 -15 0 -8 -5 -15 -11 -15
-7 0 -17 -8 -24 -17 -12 -16 -50 -18 -457 -21 -243 -1 -551 -7 -683 -12 -132
-5 -241 -8 -242 -7 -1 1 21 26 48 56 27 29 49 59 49 65 0 6 45 58 100 116 56
58 104 112 108 121 4 9 88 100 187 203 99 103 183 195 187 204 3 9 71 85 150
167 342 359 628 681 628 706 0 5 285 9 656 9 l656 0 -79 -87z m-7388 -2368
c151 -38 305 -154 384 -289 75 -126 102 -319 66 -461 -80 -316 -394 -520 -710
-462 -195 36 -360 157 -444 327 -68 140 -85 262 -55 407 48 233 210 408 439
474 77 23 240 24 320 4z m2785 -1080 c47 -3 110 -8 140 -10 39 -4 49 -2 35 4
-13 6 640 8 1765 4 982 -3 1786 -6 1786 -7 1 0 4 -25 8 -54 l7 -53 -1473 5
c-1685 7 -2420 14 -2429 24 -4 4 -16 29 -28 55 l-21 49 63 -6 c34 -3 100 -8
147 -11z m5880 -39 c0 -24 3 -52 6 -60 6 -15 -58 -16 -692 -14 l-699 3 -5 52
-6 53 441 3 c242 1 556 3 698 5 l257 2 0 -44z m-6904 -262 c109 -28 183 -72
274 -164 129 -129 183 -257 182 -435 0 -174 -57 -311 -182 -435 -124 -125
-262 -182 -435 -182 -177 0 -311 57 -440 186 -127 128 -179 258 -178 441 0 82
6 115 28 184 91 269 345 443 622 425 39 -3 98 -11 129 -20z m-3345 -70 c268
-85 450 -359 424 -640 -41 -445 -512 -702 -910 -496 -106 55 -211 164 -263
272 -50 106 -64 167 -64 278 1 160 57 303 165 419 169 180 410 242 648 167z
m4276 -426 c6 -18 14 -48 18 -65 l7 -33 -201 0 -201 0 0 65 0 65 183 0 183 0
11 -32z m893 10 c377 -5 1158 -7 1735 -4 578 4 1555 9 2171 12 l1121 6 0 -39
0 -38 -2231 0 c-1227 1 -2517 -2 -2866 -5 -349 -3 -636 -5 -637 -4 -2 0 -6 22
-10 49 -6 45 -5 48 13 40 10 -4 327 -12 704 -17z m-3474 -362 c61 -28 115 -82
146 -145 18 -36 23 -63 23 -121 -1 -124 -56 -214 -163 -267 -48 -24 -69 -28
-132 -27 -89 1 -134 19 -197 76 -61 58 -85 108 -91 194 -6 101 16 163 82 230
62 61 115 82 211 83 54 1 82 -5 121 -23z m2434 -421 l215 2 -1 -36 -1 -36
-322 -3 -321 -2 0 42 0 43 107 -6 c60 -3 205 -4 323 -4z m3080 -31 c1378 -4
2528 -6 2555 -6 44 1 47 0 21 -8 -16 -5 -33 -7 -38 -4 -4 3 -8 0 -8 -7 0 -10
-3 -10 -12 -1 -15 15 -61 15 -76 0 -9 -9 -15 -9 -24 0 -15 15 -64 16 -73 2 -5
-8 -11 -7 -20 0 -15 12 -106 9 -138 -5 -11 -4 -23 -3 -29 3 -8 8 -15 8 -24 1
-8 -7 -14 -7 -19 1 -8 13 -52 13 -61 -1 -4 -8 -9 -7 -15 2 -7 11 -12 12 -28 2
-14 -9 -22 -9 -27 -2 -4 8 -9 8 -17 0 -15 -15 -54 -14 -60 2 -3 9 -9 9 -25 0
-14 -9 -23 -9 -27 -2 -5 7 -11 6 -21 -2 -11 -9 -17 -9 -29 1 -12 10 -18 10
-31 -1 -12 -10 -20 -10 -34 -1 -12 7 -21 8 -25 2 -9 -15 -162 -13 -168 3 -4 9
-8 8 -16 -3 -8 -12 -14 -13 -30 -3 -13 8 -22 9 -26 3 -8 -13 -122 -13 -130 0
-5 7 -11 8 -18 1 -8 -6 -738 -10 -2017 -12 l-2005 -2 -3 27 -3 28 98 -6 c54
-3 1225 -9 2603 -12z m2989 -9 c-8 -7 -368 -9 -376 -2 -3 4 81 7 187 7 106 0
191 -2 189 -5z m-7267 -644 c256 -66 431 -263 468 -528 26 -186 -39 -372 -180
-513 -122 -123 -261 -180 -435 -180 -178 0 -315 57 -440 184 -84 85 -127 157
-161 272 -25 81 -25 247 0 329 61 204 219 365 421 428 103 32 220 35 327 8z
m-2372 -143 c75 -17 202 -84 261 -137 126 -113 198 -264 207 -432 9 -189 -47
-338 -177 -470 -99 -99 -203 -153 -344 -177 -90 -15 -104 -15 -194 0 -141 24
-245 78 -343 177 -131 133 -186 275 -178 461 6 129 36 224 104 323 105 153
244 236 454 271 35 6 156 -3 210 -16z"/>
</g>
</svg>
